Coordinates
version=1
nRows=10
nColumns=34
inDegrees=yes

Units are S.I. units (second, meters, Newtons, ...)
If the header above contains a line with 'inDegrees', this indicates whether rotational values are in degrees (yes) or radians (no).

endheader
time	pelvis_tilt	pelvis_list	pelvis_rotation	pelvis_tx	pelvis_ty	pelvis_tz	hip_flexion_r	hip_adduction_r	hip_rotation_r	knee_angle_r	ankle_angle_r	subtalar_angle_r	mtp_angle_r	hip_flexion_l	hip_adduction_l	hip_rotation_l	knee_angle_l	ankle_angle_l	subtalar_angle_l	mtp_angle_l	lumbar_extension	lumbar_bending	lumbar_rotation	arm_flex_r	arm_add_r	arm_rot_r	elbow_flex_r	pro_sup_r	arm_flex_l	arm_add_l	arm_rot_l	elbow_flex_l	pro_sup_l
      5.96666670	    -31.99304744	     10.51530297	      0.35478000	      0.81738285	      0.53495661	     -0.18460102	    115.15234541	    -23.09180128	     15.65634679	    113.95666023	     30.57791097	     -4.68831399	      0.00000000	    102.61140196	    -16.75517262	    -10.02315982	    111.41439898	     36.36389786	      3.87280522	      0.00000000	    -42.90927257	     -4.97533327	     -3.45116539	    269.35003621	   -173.13765843	    190.82633823	     51.28780394	     84.41878490	     91.18267822	     -3.15145314	      4.46246537	     57.28359163	     70.98616975
      5.98333330	    -32.47028524	     10.53274862	     -0.46062463	      0.81997316	      0.52358858	     -0.18388324	    118.00736855	    -22.30206482	     15.74308161	    115.87463852	     31.84893050	     -4.01828368	      0.00000000	    107.25895590	    -19.36426263	     -6.91459320	    117.82434036	     36.35182333	      4.41373434	      0.00000000	    -41.89542043	     -5.74600653	     -3.40867897	    271.92288129	   -177.15544246	    192.82205832	     54.36854478	     84.40311748	     93.62915055	     -0.74204063	      5.03756626	     58.53209300	     70.43271861
      6.00000000	    -33.33237188	     10.62674535	     -1.05044883	      0.83181302	      0.51676775	     -0.18736701	    119.76900704	    -22.64024825	     15.76004562	    116.73648502	     32.05552004	     -3.31191430	      0.00000000	    109.89697369	    -21.50919410	     -5.20343423	    121.90087931	     34.96561959	      6.77960166	      0.00000000	    -40.25067153	     -6.24666569	     -3.12367302	    272.16367601	   -179.70898778	    195.96495275	     58.22220683	     84.71518220	     92.41968957	      2.34654740	      5.20053398	     61.98289603	     69.60280106
      6.01666670	    -33.84984915	     10.76296628	     -1.59747846	      0.83391009	      0.51231022	     -0.18331052	    119.99999986	    -22.83075424	     15.44131234	    116.97370917	     32.54013089	     -3.16930676	      0.00000000	    109.38216584	    -22.68031371	     -6.52375012	    120.87206027	     33.65938095	      7.41417318	      0.00000000	    -38.71544886	     -6.71208268	     -2.96621976	    272.29666658	   -183.46804797	    198.11966216	     60.27766300	     84.92102450	     91.12583244	      4.70339461	      6.05601833	     62.48180627	     69.58126687
      6.03333330	    -35.11530692	     10.26720705	     -1.38516562	      0.83778072	      0.51705421	     -0.17968950	    119.99999986	    -23.46443599	     14.37832317	    116.82101259	     33.25825210	     -3.35283921	      0.00000000	    108.95877458	    -23.18592099	     -7.92776865	    118.65538645	     33.63209403	      7.40984191	      0.00000000	    -36.42198640	     -6.47947467	     -3.03550650	    270.99314291	   -184.53162645	    203.55661115	     65.16907162	     85.80099562	     87.47785233	      6.48233913	      6.57882702	     66.61181807	     69.69443861
      6.05000000	    -36.39181483	     10.58145843	     -0.70617585	      0.85205734	      0.51889549	     -0.18608820	    119.99999986	    -24.61678408	     14.99516071	    116.75633110	     35.86489498	     -2.91378149	      0.00000000	    107.93481209	    -23.31398210	    -10.13080592	    117.23108857	     33.37576703	      7.52028514	      0.00000000	    -33.44243767	     -6.27565745	     -3.20940653	    268.82671875	   -185.40427051	    208.42217676	     70.15209357	     86.74625577	     82.70480311	      8.09371297	      7.48715649	     69.99184339	     70.29069216
      6.06666670	    -37.15651233	     11.59337075	     -0.31706329	      0.83695087	      0.52763917	     -0.18250349	    119.89644575	    -24.23210610	     15.80897122	    115.60749732	     37.81291904	     -3.24562645	      0.00000000	    106.57780162	    -22.69843877	    -12.58802793	    115.49302324	     34.54452678	      6.80622027	      0.00000000	    -31.91629577	     -7.57040526	     -3.90287959	    269.00137958	   -186.31973882	    211.15934352	     70.40278176	     87.27419704	     81.83479600	      9.61482239	      8.22275025	     68.47024597	     70.72425408
      6.08333330	    -37.05041800	     11.42328449	      0.41713955	      0.80731964	      0.53896528	     -0.17085787	    118.06171866	    -22.66326483	     14.49853224	    113.03407215	     38.82902495	     -4.80643656	      0.00000000	    106.16620535	    -22.03531332	    -13.17040883	    112.73068346	     33.40456541	      6.19253990	      0.00000000	    -32.29537210	     -8.11162278	     -3.92200559	    272.66919624	   -186.07906489	    213.29891735	     68.48040086	     87.69026667	     85.73809752	     10.92610530	      9.74519571	     62.80509728	     71.73645306
      6.10000000	    -37.25671939	     11.12379903	      1.02156249	      0.81226572	      0.54888393	     -0.16456254	    115.86790715	    -20.90739573	     13.18195006	    110.38557602	     38.27608481	     -8.14248357	      0.00000000	    105.71606044	    -22.05037271	    -13.13791796	    110.37973486	     30.98449127	      6.02433000	      0.00000000	    -32.02442398	     -8.63056413	     -3.72682944	    273.87799282	   -185.20785923	    214.71475257	     68.91285526	     87.80681063	     87.52765285	     11.09249080	     11.71138014	     60.76357856	     72.63895046
      6.11666670	    -36.90442686	     10.84364368	      1.26913735	      0.80546525	      0.56680731	     -0.16394664	    113.09347400	    -19.09035009	     12.18347322	    107.20286349	     36.58235472	    -11.74876819	      0.00000000	    104.41505326	    -21.96783412	    -13.71952252	    107.05111374	     28.83322868	      6.76536031	      0.00000000	    -32.48091931	     -9.27775153	     -3.52570321	    275.16061878	   -183.53378352	    215.96065459	     69.42816864	     87.60355134	     90.58042070	     11.09216316	     13.94784472	     57.37532476	     73.85847714
